PathFileType	4	(X/Y/Z)	P:\Projects\LMB_grand_challenge_database\project_only\opensim\experimental_data\SixthCompetition/DM_bouncy5_new.trc
DataRate	CameraRate	NumFrames	NumMarkers	Units	OrigDataRate	OrigDataStartFrame	OrigNumFrames
120	120	6	68	mm	120	0	342
Frame#	Time	Sternum			Neck			R_Shoulder			L_Shoulder			Xiphoid			Thoracic			R_Asis			L_Asis			R_Psis			L_Psis			Lumbar			R_Elbow			R_ElbowMedial			R_ShoulderAnterior			R_ShoulderPosterior			R_Wrist			R_Radius			R_Ulna			L_Elbow			L_ElbowMedial			L_ShoulderAnterior			L_ShoulderPosterior			L_Wrist			L_Ulna			L_Radius			L_Thigh_Superior			L_Thigh_Inferior			L_Thigh_Lateral			L_Knee_Lateral			L_Knee_Medial			L_Patella			L_Shank_Superior			L_Shank_Inferior			L_Shank_Lateral			L_Ankle_Lateral			L_Ankle_Medial			R_Thigh_Superior			R_Thigh_Inferior			R_Thigh_Lateral			R_Knee_Lateral			R_Knee_Medial			R_Patella			R_Shank_Superior			R_Shank_Inferior			R_Shank_Lateral			R_Ankle_Lateral			RankleMedial			R_Heel			R_Toe			R_Midfoot_Medial			R_Midfoot_Lateral			R_Hindfoot			R_Midfoot_Superior			R_ToeMedial			R_ToeLateral			L_Heel			L_Toe			L_Midfoot_Medial			L_Midfoot_Lateral			L_Hindfoot			L_Midfoot_Superior			L_ToeMedial			L_ToeLateral			Oglobal			Sacral			Xglobal			Yglobal			Zglobal			
		X1	Y1	Z1	X2	Y2	Z2	X3	Y3	Z3	X4	Y4	Z4	X5	Y5	Z5	X6	Y6	Z6	X7	Y7	Z7	X8	Y8	Z8	X9	Y9	Z9	X10	Y10	Z10	X11	Y11	Z11	X12	Y12	Z12	X13	Y13	Z13	X14	Y14	Z14	X15	Y15	Z15	X16	Y16	Z16	X17	Y17	Z17	X18	Y18	Z18	X19	Y19	Z19	X20	Y20	Z20	X21	Y21	Z21	X22	Y22	Z22	X23	Y23	Z23	X24	Y24	Z24	X25	Y25	Z25	X26	Y26	Z26	X27	Y27	Z27	X28	Y28	Z28	X29	Y29	Z29	X30	Y30	Z30	X31	Y31	Z31	X32	Y32	Z32	X33	Y33	Z33	X34	Y34	Z34	X35	Y35	Z35	X36	Y36	Z36	X37	Y37	Z37	X38	Y38	Z38	X39	Y39	Z39	X40	Y40	Z40	X41	Y41	Z41	X42	Y42	Z42	X43	Y43	Z43	X44	Y44	Z44	X45	Y45	Z45	X46	Y46	Z46	X47	Y47	Z47	X48	Y48	Z48	X49	Y49	Z49	X50	Y50	Z50	X51	Y51	Z51	X52	Y52	Z52	X53	Y53	Z53	X54	Y54	Z54	X55	Y55	Z55	X56	Y56	Z56	X57	Y57	Z57	X58	Y58	Z58	X59	Y59	Z59	X60	Y60	Z60	X61	Y61	Z61	X62	Y62	Z62	X63	Y63	Z63	X64	Y64	Z64	X65	Y65	Z65	X66	Y66	Z66	X67	Y67	Z67	X68	Y68	Z68	

1	0.858333	-1163.87	1328.12	235.779	-1320.41	1414.96	217.341	-1242.22	1341.36	397.572	-1202.31	1370.29	58.5028	-1156.74	1157.45	229.418	-1417.32	1240.04	196.256	-1258.56	941.326	339.511	-1240.94	937.59	68.3639	-1454.39	989.102	218.961	-1451.71	984.5359999999999	141.597	-1446.67	1035.73	183.942	-1310.49	1029.47	491.882	-0	0	0	-0	0	0	-0	0	0	-1242.24	755.954	478.54	-1237.04	769.348	435.739	-1290.22	761.396	486.632	-1144.9	1036.26	-18.5423	-0	0	0	-0	0	0	-0	0	0	-1059.34	780.6559999999999	15.1857	-1094.02	789.184	-20.8785	-1089.1	793.694	54.2878	-1316.31	754.115	38.9611	-1324.84	533.904	62.9745	-1265.54	621.191	76.52500000000001	-0	0	0	-0	0	0	-1311.38	416.659	111.173	-1422.01	414.448	55.3237	-1658.95	289.443	59.9233	-1522.76	316.172	125.193	-0	0	0	-0	0	0	-1296.85	767.562	359.561	-1201.13	574.452	311.266	-1180.91	713.296	337.432	-0	0	0	-0	0	0	-1101.57	511.047	238.767	-1220.13	393.486	326.831	-1236.84	187.814	314.12	-1162.12	303.659	243.076	-0	0	0	-0	0	0	-1329.19	56.5183	260.734	-1031.49	52.7437	264.237	-1105.12	30.4647	216.775	-1119.4	31.0506	333.172	-1231.22	26.3781	316.821	-1168.56	117.695	267.168	-1065.03	39.8937	223.041	-1071.67	40.4276	313.085	-1789.05	288.778	111.623	-1651.14	25.6802	109.341	-1700.49	91.3897	177.679	-1722.68	85.0258	65.5489	-1785.52	179.75	67.1032	-1660.98	171.601	105.194	-1689.14	49.2181	153.339	-1692.04	49.665	57.0424	-0	0	0	-1453.05	986.819	180.279	-200	0	0	-0	0	200	-0	200	0	
2	0.866667	-1154	1330.62	235.681	-1310.93	1417.28	218.46	-1231.38	1343.4	398.188	-1193.46	1372.79	59.2342	-1146.74	1159.79	229.226	-1407.5	1242.14	197.51	-1247.93	944.485	340.48	-1231.4	939.092	69.0026	-1444.72	991.022	221.558	-1441.28	987.115	142.752	-1436.63	1038.01	184.964	-1296.63	1030.88	493.26	-0	0	0	-0	0	0	-0	0	0	-1226.74	757.816	478.349	-1221.96	771.292	435.186	-1274.59	763.093	486.845	-1140.32	1037.96	-19.483	-0	0	0	-0	0	0	-0	0	0	-1058.3	781.532	13.8032	-1092.93	790.489	-22.3715	-1088.72	794.385	52.7258	-1303.12	756.226	39.6761	-1305.31	535.673	62.3866	-1249.82	624.4160000000001	75.7927	-0	0	0	-0	0	0	-1291.51	418.787	110.116	-1402.79	418.303	54.4573	-1641	295.585	60.4378	-1503.46	319.232	124.603	-0	0	0	-0	0	0	-1288.72	768.999	360.711	-1195.71	574.3440000000001	311.962	-1173.26	712.796	338.257	-0	0	0	-0	0	0	-1096.85	509.368	239.516	-1216.8	393.415	326.975	-1235.04	187.559	313.179	-1159.63	303.368	243.53	-0	0	0	-0	0	0	-1329.18	56.7677	260.781	-1031.38	52.5435	264.232	-1105.18	30.3047	216.761	-1119.43	30.8562	333.161	-1231.17	26.3741	316.886	-1168.4	117.646	267.215	-1064.94	39.8169	223.077	-1071.71	40.3992	313.012	-1769.75	295.37	112.749	-1638.19	31.4738	108.363	-1684.2	95.8443	176.286	-1705.85	91.4648	63.9557	-1767.42	186.401	66.3586	-1643.76	177.099	105.265	-1672.79	55.118	151.737	-1679.26	56.8242	55.966	-0	0	0	-1443	989.069	182.155	-200	0	0	-0	0	200	-0	200	0	
3	0.875	-1144.3	1333.18	235.544	-1301.35	1419.6	219.661	-1220.43	1345.38	398.573	-1184.97	1375.57	59.3077	-1136.7	1162.28	228.806	-1397.78	1244.34	198.842	-1237.82	946.697	341.219	-1221.96	940.639	69.5425	-1434.79	993.343	222.62	-1431.43	989.41	143.98	-1426.67	1040.32	185.862	-1282.45	1032.49	494.513	-0	0	0	-0	0	0	-0	0	0	-1211.01	759.876	477.811	-1206.74	773.95	434.691	-1258.66	764.754	486.776	-1136.26	1039.96	-20.755	-0	0	0	-0	0	0	-0	0	0	-1057.78	782.664	11.9335	-1092.6	792.3200000000001	-24.4377	-1087.61	795.668	50.9601	-1290.26	758.635	40.1802	-1286.77	537.914	61.4924	-1233.77	627.5650000000001	75.8373	-0	0	0	-0	0	0	-1271.13	421.598	108.282	-1383.61	422.273	53.4264	-1622.93	301.346	61.1428	-1484	322.708	123.798	-0	0	0	-0	0	0	-1280.59	770.414	361.793	-1190.76	574.51	312.725	-1166.29	712.524	339.244	-0	0	0	-0	0	0	-1092.84	508.36	240.2	-1214.11	393.419	327.664	-1234.06	187.697	313.184	-1157.04	303.061	243.884	-0	0	0	-0	0	0	-1329.13	57.0334	260.817	-1031.27	52.3259	264.263	-1105.23	30.1717	216.546	-1119.36	30.6749	332.962	-1231.17	26.349	316.838	-1168.32	117.565	267.119	-1064.88	39.7036	223.072	-1071.69	40.3105	313.009	-1753.3	302.423	117.344	-1619.81	37.3482	106.178	-1667.34	100.242	171.213	-1687.72	101.705	58.57	-1747.21	193.822	65.1207	-1624.43	183.368	104.842	-1654.18	60.6397	148.074	-1659.06	62.7074	55.0618	-0	0	0	-1433.11	991.376	183.3	-200	0	0	-0	0	200	-0	200	0	
4	0.883333	-1134.67	1335.94	235.556	-1291.9	1421.98	220.745	-1209.52	1347.79	398.83	-1176.71	1378.33	59.0691	-1126.91	1164.87	228.127	-1388.03	1246.49	200.054	-1227.64	949.035	342.088	-1212.7	942.548	70.04510000000001	-1424.94	995.8869999999999	224.121	-1421.78	991.902	145.197	-1416.82	1042.83	187.082	-1268.19	1034.34	495.613	-0	0	0	-0	0	0	-0	0	0	-1195.49	762.146	477.214	-1191.67	776.511	434.111	-1242.94	766.655	486.532	-1132.51	1041.95	-22.0835	-0	0	0	-0	0	0	-0	0	0	-1057.2	783.535	9.204610000000001	-1092.45	793.734	-26.3189	-1087.28	796.71	48.8508	-1277.83	761.421	40.185	-1268.52	540.361	60.7275	-1217.69	631.256	76.0244	-0	0	0	-0	0	0	-1250.41	424.441	107.326	-1363.74	425.577	53.0591	-1603.97	306.256	61.8796	-1464.27	326.186	123.51	-0	0	0	-0	0	0	-1272.39	772.024	362.717	-1185.68	574.403	312.982	-1159.53	712.178	339.965	-0	0	0	-0	0	0	-1089.22	507.041	240.796	-1211.47	393.407	328.062	-1233.04	187.942	313.3	-1155.05	303.086	244.336	-0	0	0	-0	0	0	-1329	57.2183	260.679	-1031.15	52.1128	264.294	-1105.06	30.0218	216.79	-1119.38	30.5944	333.181	-1231.11	26.4701	316.858	-1168.05	117.551	267.224	-1064.8	39.5917	223.05	-1071.5	40.1085	313.086	-1735.4	307.77	120.448	-1599.04	42.9175	103.14	-1646.96	104.362	164.845	-1665.49	111.596	52.1055	-1725.04	202.156	63.1159	-1603.14	190.549	103.652	-1633.84	65.11620000000001	146.396	-1637.24	67.89749999999999	54.5412	-0	0	0	-1423.36	993.894	184.659	-200	0	0	-0	0	200	-0	200	0	
5	0.891667	-1125.09	1338.72	235.4	-1282.65	1424.49	221.797	-1198.73	1350.42	399.117	-1168.95	1381.2	58.8431	-1117.24	1167.62	227.644	-1378.45	1248.77	201.405	-1217.44	951.5839999999999	343.037	-1203.41	944.5890000000001	70.53570000000001	-1415.04	998.461	225.572	-1412.08	994.485	146.439	-1406.97	1045.41	188.293	-1253.86	1036.48	496.758	-0	0	0	-0	0	0	-0	0	0	-1179.67	764.723	476.099	-1176.19	779.226	433.41	-1227.22	768.984	486.225	-1129.3	1044.27	-23.7948	-0	0	0	-0	0	0	-0	0	0	-1057.01	784.8200000000001	6.19993	-1092.44	795.302	-28.6135	-1086.36	798.367	46.3466	-1265.62	764.285	40.1065	-1250.27	543.287	59.2829	-1201.28	634.925	76.6756	-0	0	0	-0	0	0	-1229.67	428.039	106.132	-1343.08	428.375	52.7534	-1584.19	310.261	62.7256	-1444.4	329.715	123.745	-0	0	0	-0	0	0	-1264.35	773.64	363.5	-1181.5	574.86	313.697	-1152.89	712.033	340.778	-0	0	0	-0	0	0	-1085.64	506.096	241.415	-1209	393.425	328.217	-1232.26	188.095	313.446	-1153.09	302.989	244.545	-0	0	0	-0	0	0	-1328.83	57.4876	260.635	-1031.07	51.8809	264.454	-1104.92	29.9179	216.835	-1119.28	30.5798	333.222	-1231.05	26.6016	316.862	-1167.89	117.536	267.194	-1064.78	39.4893	223.022	-1071.55	40.1263	312.962	-1716.09	311.612	122.498	-1580.25	49.1869	104.714	-1626.58	107.405	160.637	-1643.52	118.683	47.9783	-1703.41	208.726	61.9651	-1582.38	195.967	103.317	-1612.73	69.0322	145.562	-1615.47	72.65900000000001	53.7213	-0	0	0	-1413.56	996.473	186.005	-200	0	0	-0	0	200	-0	200	0	
6	0.9	-1115.61	1341.58	235.052	-1273.33	1427.03	222.787	-1187.97	1353.34	399.369	-1161.1	1383.88	58.7036	-1107.45	1170.67	227.012	-1369.02	1251.21	202.788	-1207.19	953.87	343.52	-1194.22	947.102	70.8347	-1405.17	1001.03	226.82	-1402.55	997.105	147.612	-1397.23	1048	189.539	-1239.09	1038.77	497.013	-0	0	0	-0	0	0	-0	0	0	-1164.18	767.641	475.17	-1161.27	782.4640000000001	432.503	-1211.53	771.4109999999999	485.522	-1126.25	1046.46	-25.6053	-0	0	0	-0	0	0	-0	0	0	-1056.79	786.342	2.8848	-1092.85	796.893	-30.9696	-1084.6	800.079	43.7192	-1253.65	767.4829999999999	39.8289	-1231.44	546.676	57.9479	-1185.17	639.298	77.2773	-0	0	0	-0	0	0	-1209.26	432.029	105.209	-1323.06	431.232	52.2969	-1564	313.65	63.4034	-1423.91	332.922	123.798	-0	0	0	-0	0	0	-1256.59	775.328	364.389	-1177.47	575.2	314.291	-1146.32	711.769	341.264	-0	0	0	-0	0	0	-1082.21	505.307	241.775	-1206.89	393.605	328.626	-1231.41	188.507	313.624	-1151.32	302.924	244.764	-0	0	0	-0	0	0	-1328.72	57.8395	260.593	-1030.96	51.6698	264.413	-1104.85	29.8357	216.878	-1119.25	30.4915	333.259	-1231.03	26.752	316.844	-1167.72	117.543	267.234	-1064.68	39.4004	223.017	-1071.58	40.0376	312.985	-1695.72	313.989	124.111	-1557.14	51.5624	103.012	-1606.73	109.129	159.902	-1623.06	121.988	47.321	-1684.67	212.731	62.0096	-1562.67	198.901	104.131	-1590.67	71.9892	144.841	-1594.15	76.38849999999999	52.7571	-0	0	0	-1403.86	999.0700000000001	187.216	-200	0	0	-0	0	200	-0	200	0	
